HIERARCHY
ROOT Hips
{
	OFFSET 0.000000 0.000000 0.000000
	CHANNELS 6 Xposition Yposition Zposition Zrotation Yrotation Xrotation 
	JOINT LowerBack
	{
		OFFSET 0.000000 0.000000 0.000000
		CHANNELS 3 Zrotation Yrotation Xrotation
		JOINT Spine
		{
			OFFSET 0.028270 2.035590 -0.193380
			CHANNELS 3 Zrotation Yrotation Xrotation
			JOINT Spine1
			{
				OFFSET 0.056720 2.048850 -0.042750
				CHANNELS 3 Zrotation Yrotation Xrotation
				JOINT Neck
				{
					OFFSET 0.000000 0.000000 0.000000
					CHANNELS 3 Zrotation Yrotation Xrotation
					JOINT Neck1
					{
						OFFSET -0.054170 1.746240 0.172020
						CHANNELS 3 Zrotation Yrotation Xrotation
						JOINT Head
						{
							OFFSET 0.104070 1.761360 -0.123970
							CHANNELS 3 Zrotation Yrotation Xrotation
							End Site
							{
								OFFSET 0.000000 0.000000 0.000000
							}
						}
					}
				}
				JOINT LeftShoulder
				{
					OFFSET 0.000000 0.000000 0.000000
					CHANNELS 3 Zrotation Yrotation Xrotation
					JOINT LeftArm
					{
						OFFSET 3.362410 1.200890 -0.311210
						CHANNELS 3 Zrotation Yrotation Xrotation
						JOINT LeftForeArm
						{
							OFFSET 4.983000 -0.000000 -0.000000
							CHANNELS 3 Zrotation Yrotation Xrotation
							JOINT LeftHand
							{
								OFFSET 3.483560 -0.000000 -0.000000
								CHANNELS 3 Zrotation Yrotation Xrotation
								JOINT LeftFingerBase
								{
									OFFSET 0.000000 0.000000 0.000000
									CHANNELS 3 Zrotation Yrotation Xrotation
									JOINT LeftHandIndex1
									{
										OFFSET 0.715260 -0.000000 -0.000000
										CHANNELS 3 Zrotation Yrotation Xrotation
										End Site
										{
											OFFSET 0.000000 0.000000 0.000000
										}
									}
								}
								JOINT LThumb
								{
									OFFSET 0.000000 0.000000 0.000000
									CHANNELS 3 Zrotation Yrotation Xrotation
									End Site
									{
										OFFSET 0.000000 0.000000 0.000000
									}
								}
							}
						}
					}
				}
				JOINT RightShoulder
				{
					OFFSET 0.000000 0.000000 0.000000
					CHANNELS 3 Zrotation Yrotation Xrotation
					JOINT RightArm
					{
						OFFSET -3.136600 1.374050 -0.404650
						CHANNELS 3 Zrotation Yrotation Xrotation
						JOINT RightForeArm
						{
							OFFSET -5.241900 -0.000000 -0.000000
							CHANNELS 3 Zrotation Yrotation Xrotation
							JOINT RightHand
							{
								OFFSET -3.444170 -0.000000 -0.000000
								CHANNELS 3 Zrotation Yrotation Xrotation
								JOINT RightFingerBase
								{
									OFFSET 0.000000 0.000000 0.000000
									CHANNELS 3 Zrotation Yrotation Xrotation
									JOINT RightHandIndex1
									{
										OFFSET -0.622530 -0.000000 -0.000000
										CHANNELS 3 Zrotation Yrotation Xrotation
										End Site
										{
											OFFSET 0.000000 0.000000 0.000000
										}
									}
								}
								JOINT RThumb
								{
									OFFSET 0.000000 0.000000 0.000000
									CHANNELS 3 Zrotation Yrotation Xrotation
									End Site
									{
										OFFSET 0.000000 0.000000 0.000000
									}
								}
							}
						}
					}
				}
			}
		}
	}
}
}
MOTION
Frames: 14
Frame Time: 0.008333
-13.147701 16.911745 0.478074 12.739030 83.201120 34.427223 6.814948 -2.847171 -4.141393 0.716636 -3.522332 -3.726695 -7.300953 -3.495185 -0.306301 6.435035 -10.479467 -8.175366 -4.676714 -0.340220 -0.250346 0.000000 0.000000 0.000000 2.971554 6.089323 0.698908 -62.280753 -23.696096 23.729106 -178.639683 -75.464560 179.943252 6.320922 -1.618452 -0.128471 -0.309167 0.686079 -0.000000 0.000000 0.000000 0.000000 0.000000 0.000000 0.000000 14.137075 -6.859767 1.188981 71.707002 -1.329295 -5.413498 0.520298 70.527569 -0.036863 -9.088371 2.902194 -0.254785 0.103717 -0.280974 0.000000 0.000000 0.000000 0.000000 0.000000 0.000000 0.000000 
-12.978733 16.868326 0.500197 14.742524 83.181504 36.275319 6.880583 -2.859127 -4.091943 0.735433 -3.537511 -3.712572 -7.279485 -3.511572 -0.294425 6.176885 -10.422479 -8.218272 -4.744647 -0.344573 -0.269551 0.000000 0.000000 0.000000 2.879587 6.175285 0.722788 -62.358050 -23.729493 23.733110 -178.609935 -75.420048 179.946007 6.083528 -1.712874 -0.129067 -0.304871 0.690452 -0.000000 0.000000 0.000000 0.000000 0.000000 0.000000 0.000000 14.237526 -6.811132 1.214149 71.506298 -1.171749 -5.487207 0.537434 69.869510 -0.037859 -9.375788 2.752964 -0.250303 0.107020 -0.277609 0.000000 0.000000 0.000000 0.000000 0.000000 0.000000 0.000000 
-12.811977 16.829718 0.519828 16.277023 83.264116 37.630271 7.015196 -2.875679 -4.009347 0.767450 -3.561161 -3.694770 -7.258808 -3.537421 -0.288701 5.945129 -10.355235 -8.244469 -4.810937 -0.348863 -0.284292 0.000000 0.000000 0.000000 2.771260 6.241150 0.748804 -62.530179 -23.718720 23.780750 -178.600285 -75.554690 179.948781 5.852661 -1.798772 -0.128873 -0.299657 0.693141 -0.000000 0.000000 0.000000 0.000000 0.000000 0.000000 0.000000 14.361050 -6.764946 1.238703 71.274117 -0.927326 -5.564136 0.556530 69.136352 -0.038855 -9.665848 2.573993 -0.242527 0.110394 -0.273880 0.000000 0.000000 0.000000 0.000000 0.000000 0.000000 0.000000 
-12.647415 16.796794 0.537362 17.429897 83.452745 38.593309 7.211579 -2.895590 -3.907438 0.810947 -3.591996 -3.675912 -7.240167 -3.571475 -0.288102 5.745789 -10.281082 -8.252835 -4.875011 -0.353090 -0.293858 0.000000 0.000000 0.000000 2.646811 6.281719 0.775483 -62.788844 -23.657576 23.874598 -178.612705 -75.868538 179.951455 5.637177 -1.867809 -0.127690 -0.293770 0.693784 -0.000000 0.000000 0.000000 0.000000 0.000000 0.000000 0.000000 14.511934 -6.724967 1.262240 71.016754 -0.599992 -5.649172 0.577995 68.330810 -0.039793 -9.945856 2.367079 -0.231058 0.113734 -0.269785 0.000000 0.000000 0.000000 0.000000 0.000000 0.000000 0.000000 
-12.484933 16.770121 0.553283 18.257211 83.747028 39.236638 7.463109 -2.916411 -3.803115 0.864159 -3.627802 -3.659118 -7.225248 -3.611501 -0.291680 5.582638 -10.201406 -8.242201 -4.936315 -0.357262 -0.297501 0.000000 0.000000 0.000000 2.504449 6.293357 0.802011 -63.118309 -23.542421 24.014931 -178.648362 -76.359375 179.953909 5.444328 -1.911321 -0.125315 -0.287458 0.692045 -0.000000 0.000000 0.000000 0.000000 0.000000 0.000000 0.000000 14.691628 -6.691540 1.283827 70.742885 -0.201595 -5.748987 0.601844 67.465537 -0.040640 -10.207874 2.135964 -0.215990 0.116978 -0.265382 0.000000 0.000000 0.000000 0.000000 0.000000 0.000000 0.000000 
-12.324405 16.749824 0.568586 18.957824 84.134379 39.773525 7.741495 -2.937657 -3.713081 0.921260 -3.666741 -3.646834 -7.215744 -3.655581 -0.297362 5.460524 -10.118903 -8.213091 -4.994028 -0.361358 -0.294947 0.000000 0.000000 0.000000 2.348774 6.274967 0.827095 -63.496425 -23.374030 24.199643 -178.707320 -77.020773 179.956059 5.279420 -1.921115 -0.121750 -0.280913 0.687618 -0.000000 0.000000 0.000000 0.000000 0.000000 0.000000 0.000000 14.902821 -6.666044 1.301620 70.465994 0.251951 -5.868270 0.627654 66.559292 -0.041393 -10.450521 1.887051 -0.197726 0.120106 -0.260769 -0.000000 0.000000 0.000000 0.000000 0.000000 0.000000 0.000000 
-12.165903 16.735705 0.584215 19.826406 84.594318 40.505269 8.011164 -2.959454 -3.646012 0.975026 -3.706734 -3.639768 -7.213112 -3.701459 -0.303191 5.382002 -10.036056 -8.167064 -5.047094 -0.365315 -0.286370 0.000000 0.000000 0.000000 2.184489 6.227758 0.850334 -63.894752 -23.158883 24.424022 -178.788248 -77.842730 179.957849 5.144997 -1.888455 -0.116699 -0.274291 0.680239 -0.000000 0.000000 0.000000 0.000000 0.000000 0.000000 0.000000 15.144842 -6.649005 1.313762 70.202615 0.745070 -6.010383 0.654527 65.634266 -0.042075 -10.677107 1.629290 -0.177263 0.123103 -0.256095 -0.000000 0.000000 0.000000 0.000000 0.000000 0.000000 0.000000 
-12.009413 16.727467 0.600823 21.178004 85.107112 41.751517 8.248197 -2.981258 -3.607575 1.020804 -3.745792 -3.638465 -7.217372 -3.747029 -0.308399 5.343231 -9.953427 -8.105368 -5.094131 -0.369037 -0.271983 0.000000 0.000000 0.000000 2.010449 6.152305 0.872427 -64.285390 -22.902841 24.678712 -178.888342 -78.808130 179.959258 5.041324 -1.807185 -0.110064 -0.267727 0.669866 -0.000000 0.000000 0.000000 0.000000 0.000000 0.000000 0.000000 15.406753 -6.638446 1.319077 69.970447 1.261596 -6.178294 0.681234 64.713510 -0.042727 -10.893536 1.374182 -0.155898 0.125959 -0.251565 -0.000000 0.000000 0.000000 0.000000 0.000000 0.000000 0.000000 
-11.855018 16.724591 0.619424 24.042822 85.635809 44.541203 8.385306 -3.011405 -3.601330 1.046437 -3.787245 -3.642305 -7.227981 -3.795650 -0.310438 5.344352 -9.871254 -8.031316 -5.134291 -0.372450 -0.252685 0.000000 0.000000 0.000000 1.833396 6.053726 0.894983 -64.636168 -22.619501 24.958527 -179.003212 -79.900037 179.960315 4.965626 -1.671838 -0.101546 -0.261400 0.656459 -0.000000 0.000000 0.000000 0.000000 0.000000 0.000000 0.000000 15.686935 -6.634370 1.314885 69.785239 1.784891 -6.368977 0.705858 63.824077 -0.043399 -11.110623 1.132265 -0.134832 0.128655 -0.247342 0.000000 0.000000 0.000000 0.000000 0.000000 0.000000 0.000000 
-11.702767 16.726576 0.640511 30.494221 86.154263 50.941125 8.356251 -3.072920 -3.631208 1.042210 -3.848896 -3.651326 -7.241090 -3.865587 -0.307984 5.378976 -9.787616 -7.945871 -5.166770 -0.375513 -0.228854 0.000000 0.000000 0.000000 1.654354 5.926406 0.922849 -64.919129 -22.320035 25.256741 -179.126952 -81.095555 179.961082 4.912717 -1.479576 -0.091042 -0.255596 0.640263 -0.000000 0.000000 0.000000 0.000000 0.000000 0.000000 0.000000 15.975037 -6.642451 1.298421 69.661030 2.299604 -6.579578 0.725721 62.989307 -0.044133 -11.337505 0.914208 -0.115365 0.131049 -0.243559 -0.000000 0.000000 0.000000 0.000000 0.000000 0.000000 0.000000 
-11.552655 16.732961 0.664277 45.875021 86.690681 66.276988 8.139127 -3.238843 -3.714650 1.013481 -4.002802 -3.668012 -7.251117 -4.029791 -0.298317 5.437220 -9.699347 -7.844462 -5.191734 -0.378370 -0.199327 0.000000 0.000000 0.000000 1.471521 5.737879 0.970253 -65.112926 -22.024350 25.576548 -179.251753 -82.377133 179.961660 4.874806 -1.229493 -0.078332 -0.251106 0.621983 -0.000000 0.000000 0.000000 0.000000 0.000000 0.000000 0.000000 16.258638 -6.695553 1.261891 69.605357 2.784948 -6.807841 0.735705 62.234251 -0.044938 -11.582810 0.730168 -0.098696 0.132709 -0.240165 -0.000000 0.000000 0.000000 0.000000 0.000000 0.000000 0.000000 
-11.404703 16.743356 0.690757 79.352986 87.316967 99.703492 8.195117 -3.562618 -3.868043 1.058396 -4.343082 -3.695572 -7.274456 -4.379665 -0.282320 5.507382 -9.604408 -7.720706 -5.211141 -0.381353 -0.162384 0.000000 0.000000 0.000000 1.276325 5.447235 1.057891 -65.221127 -21.753759 25.925339 -179.372676 -83.735336 179.962127 4.842942 -0.922990 -0.063277 -0.248686 0.603016 -0.000000 0.000000 0.000000 0.000000 0.000000 0.000000 0.000000 16.515999 -6.831681 1.197795 69.608342 3.220475 -7.047008 0.731234 61.581418 -0.045789 -11.851073 0.587190 -0.085732 0.133396 -0.237012 -0.000000 0.000000 0.000000 0.000000 0.000000 0.000000 0.000000 
-11.258824 16.757518 0.719357 115.265206 87.769153 135.630156 8.926762 -3.664260 -3.978253 1.203813 -4.518558 -3.717312 -7.345201 -4.554753 -0.275956 5.582970 -9.500021 -7.618851 -5.220994 -0.383272 -0.131279 0.000000 0.000000 0.000000 1.050842 5.267419 1.136314 -65.244811 -21.460523 26.244880 -179.501200 -85.113578 179.962478 4.810373 -0.567272 -0.046254 -0.244783 0.582156 -0.000000 0.000000 0.000000 0.000000 0.000000 0.000000 0.000000 16.715595 -6.846394 1.144745 69.664398 3.661867 -7.243719 0.730490 61.010721 -0.046863 -12.138675 0.489952 -0.077259 0.135529 -0.235333 0.000000 0.000000 0.000000 0.000000 0.000000 0.000000 0.000000 
-11.115037 16.775212 0.749825 132.325704 87.864717 152.765276 9.281228 -3.556265 -4.009445 1.244955 -4.448968 -3.724210 -7.415093 -4.483384 -0.273003 5.663575 -9.373451 -7.549614 -5.217979 -0.383575 -0.109983 0.000000 0.000000 0.000000 0.811405 5.246575 1.188153 -65.133318 -21.142091 26.521460 -179.629752 -86.466789 179.962875 4.768032 -0.171343 -0.027605 -0.239161 0.558301 -0.000000 0.000000 0.000000 0.000000 0.000000 0.000000 0.000000 16.875717 -6.698064 1.108312 69.793507 4.119600 -7.383415 0.733905 60.521257 -0.048199 -12.440290 0.439617 -0.073671 0.138724 -0.235364 -0.000000 0.000000 0.000000 0.000000 0.000000 0.000000 0.000000 
